<svg width="36" height="36" viewBox="0 0 36 36" fill="none" xmlns="http://www.w3.org/2000/svg">
<g style="mix-blend-mode:luminosity" clip-path="url(#clip0_182_1434)">
<path d="M34.1948 16.8456C33.7951 16.7526 33.3355 16.8042 33.0299 16.9758L17.7542 25.5515L2.4786 16.9757C2.17288 16.8042 1.71449 16.7531 1.31371 16.8455C0.914053 16.9385 0.654297 17.1575 0.654297 17.3999V27C0.654297 27.1662 0.777161 27.3252 0.994209 27.4386L17.0254 35.8386C17.2306 35.946 17.4925 36 17.7544 36C18.0162 36 18.278 35.946 18.4843 35.8386L34.5155 27.4386C34.7314 27.3252 34.8543 27.1662 34.8543 27V17.3999C34.8542 17.1576 34.5945 16.9385 34.1948 16.8456Z" fill="#9D9D9D" fill-opacity="0.5"/>
<path d="M34.1948 0.045569C33.7951 -0.0468217 33.3355 0.0035924 33.0299 0.175788L17.7542 8.75159L2.4786 0.175788C2.17288 0.0035924 1.71449 -0.0461888 1.31371 0.045569C0.914053 0.138592 0.654297 0.357545 0.654297 0.599983V10.2C0.654297 10.3662 0.777161 10.5252 0.994209 10.6386L17.0254 19.0386C17.2306 19.146 17.4925 19.2 17.7544 19.2C18.0162 19.2 18.278 19.146 18.4843 19.0386L34.5155 10.6386C34.7314 10.5252 34.8543 10.3662 34.8543 10.2V0.599983C34.8542 0.357616 34.5945 0.138592 34.1948 0.045569Z" fill="#9D9D9D" fill-opacity="0.5"/>
</g>
<defs>
<clipPath id="clip0_182_1434">
<rect width="36" height="36" fill="white"/>
</clipPath>
</defs>
</svg>
