<svg width="60" height="43" viewBox="0 0 60 43" fill="none" xmlns="http://www.w3.org/2000/svg">
<g style="mix-blend-mode:luminosity" filter="url(#filter0_i_263_185)">
<path d="M0.945312 19.2695C1.02344 19.1328 1.13086 18.9863 1.26758 18.8301C1.38477 18.6543 1.53125 18.4492 1.70703 18.2148C1.90234 18.0586 2.15625 17.834 2.46875 17.541C2.78125 17.248 3.13281 16.9062 3.52344 16.5156C3.875 16.125 4.30469 15.6465 4.8125 15.0801C5.32031 14.4941 5.93555 13.791 6.6582 12.9707C6.9707 12.6387 7.36133 12.2188 7.83008 11.7109C8.29883 11.1836 8.85547 10.5586 9.5 9.83594C10.0469 9.19141 10.6328 8.71289 11.2578 8.40039C11.8828 8.08789 12.5469 7.93164 13.25 7.93164C13.9531 7.93164 14.4707 8.15625 14.8027 8.60547C15.1348 9.03516 15.3008 9.66992 15.3008 10.5098C15.3008 10.959 15.1348 11.8184 14.8027 13.0879C14.4707 14.3574 13.9531 16.0371 13.25 18.127C13.0742 18.5176 12.9082 18.8887 12.752 19.2402C12.6348 19.4941 12.5566 19.7188 12.5176 19.9141C12.4785 20.1094 12.459 20.2559 12.459 20.3535C12.459 20.4707 12.5273 20.6172 12.6641 20.793C12.7617 20.7344 12.8496 20.6562 12.9277 20.5586C13.0254 20.4609 13.1328 20.3438 13.25 20.207C13.4062 19.9141 13.6406 19.6113 13.9531 19.2988C14.2852 18.9668 14.6758 18.6055 15.125 18.2148C15.3008 17.8828 15.5254 17.5605 15.7988 17.248C16.0918 16.916 16.4141 16.6133 16.7656 16.3398C16.8438 16.2617 16.9414 16.1348 17.0586 15.959C17.1953 15.7832 17.3516 15.5977 17.5273 15.4023C17.7812 15.1484 18.084 14.8848 18.4355 14.6113C18.7871 14.3379 19.1973 14.0547 19.666 13.7617C20.1934 13.4883 20.6621 13.2734 21.0723 13.1172C21.502 12.9609 21.873 12.8828 22.1855 12.8828C22.791 12.8828 23.3281 13.0293 23.7969 13.3223C24.2656 13.6152 24.666 14.0742 24.998 14.6992C25.3887 15.9102 25.7598 17.0332 26.1113 18.0684C26.3262 18.6738 26.5605 19.123 26.8145 19.416C27.0879 19.709 27.3906 19.8555 27.7227 19.8555C27.9766 19.8555 28.2012 19.8066 28.3965 19.709C28.6113 19.6113 28.8066 19.4648 28.9824 19.2695L30.1543 21.9648C29.8223 22.2383 29.4805 22.5215 29.1289 22.8145C28.7773 23.1074 28.4355 23.3906 28.1035 23.6641C27.6543 24.0742 27.2344 24.3672 26.8438 24.543C26.4531 24.6992 26.0625 24.7773 25.6719 24.7773C25.2227 24.7773 24.793 24.6797 24.3828 24.4844C23.9727 24.2891 23.6211 23.9961 23.3281 23.6055C23.1719 23.4492 22.9766 23.166 22.7422 22.7559C22.5078 22.3262 22.2344 21.7988 21.9219 21.1738C21.668 20.9199 21.375 20.5879 21.043 20.1777C20.7305 19.748 20.3594 19.25 19.9297 18.6836L19.666 18.5957C19.2949 18.7129 18.9238 18.8887 18.5527 19.123C18.2012 19.3574 17.8203 19.6602 17.4102 20.0312C16.5312 20.8125 15.8965 21.3008 15.5059 21.4961C15.1152 21.6914 14.8516 21.916 14.7148 22.1699C14.4414 22.6387 13.9727 23.2441 13.3086 23.9863C12.6445 24.7285 11.8145 25.6074 10.8184 26.623C10.5645 26.877 10.3105 27.1309 10.0566 27.3848C9.80273 27.6191 9.54883 27.8535 9.29492 28.0879C9.04102 28.3027 8.74805 28.4492 8.41602 28.5273C8.10352 28.625 7.75195 28.6738 7.36133 28.6738C6.58008 28.6738 6.15039 28.4102 6.07227 27.8828C6.01367 27.3359 5.95508 26.7891 5.89648 26.2422C6.18945 25.4219 6.52148 24.3965 6.89258 23.166C7.26367 21.9355 7.69336 20.5 8.18164 18.8594C8.18164 18.7617 8.21094 18.6348 8.26953 18.4785C8.34766 18.3027 8.43555 18.0781 8.5332 17.8047C8.63086 17.5508 8.69922 17.3359 8.73828 17.1602C8.77734 16.9648 8.79688 16.7988 8.79688 16.6621C8.79688 16.5254 8.74805 16.418 8.65039 16.3398C8.55273 16.2617 8.39648 16.2227 8.18164 16.2227C7.98633 16.2227 7.72266 16.3398 7.39062 16.5742C7.07812 16.8086 6.69727 17.1797 6.24805 17.6875C5.70117 18.2734 5.26172 18.7324 4.92969 19.0645C4.59766 19.3965 4.37305 19.5918 4.25586 19.6504C4.06055 19.7871 3.82617 19.9824 3.55273 20.2363C3.29883 20.4902 3.00586 20.7734 2.67383 21.0859C2.63477 21.1641 2.57617 21.2812 2.49805 21.4375C2.41992 21.5938 2.29297 21.7695 2.11719 21.9648C2.03906 21.6719 1.90234 21.3105 1.70703 20.8809C1.51172 20.4512 1.25781 19.9141 0.945312 19.2695Z" fill="url(#paint0_linear_263_185)"/>
<path d="M28.9531 19.2695C29.3438 18.7617 29.8418 18.1562 30.4473 17.4531C31.0723 16.7305 31.8242 15.9102 32.7031 14.9922C32.7617 14.8164 32.8398 14.6113 32.9375 14.377C33.0352 14.123 33.1816 13.8105 33.377 13.4395C34.4121 11.8965 35.3398 10.4121 36.1602 8.98633C36.9805 7.56055 37.6836 6.17383 38.2695 4.82617C38.4453 4.49414 38.6309 4.08398 38.8262 3.5957C39.041 3.08789 39.3047 2.52148 39.6172 1.89648C39.8906 1.42773 40.1543 1.06641 40.4082 0.8125C40.6816 0.558594 40.9453 0.431641 41.1992 0.431641C41.5898 0.431641 41.873 0.597656 42.0488 0.929688C42.2441 1.26172 42.3418 1.7793 42.3418 2.48242C42.3418 2.87305 42 4.14258 41.3164 6.29102C40.6523 8.41992 39.6562 11.4277 38.3281 15.3145C37.9766 16.252 37.5859 17.5703 37.1562 19.2695C36.7266 20.9492 36.2285 23.0488 35.6621 25.5684C35.6035 25.9395 35.5352 26.3691 35.457 26.8574C35.3984 27.3457 35.3008 27.9121 35.1641 28.5566C34.832 29.8066 34.5977 30.8027 34.4609 31.5449C34.3242 32.2871 34.2656 32.7656 34.2852 32.9805L34.4023 33.2148C34.5 33.1562 34.6074 32.9707 34.7246 32.6582C34.8613 32.3457 34.9785 31.8965 35.0762 31.3105C35.1934 30.7832 35.2812 30.334 35.3398 29.9629C35.3984 29.6113 35.4082 29.3184 35.3691 29.084C35.7988 27.9512 36.3066 26.5059 36.8926 24.748C37.4785 22.9707 38.1621 20.9102 38.9434 18.5664C39.2559 18 39.6074 17.3164 39.998 16.5156C40.4082 15.6953 40.8379 14.7285 41.2871 13.6152C41.7363 13.1855 42.1367 12.873 42.4883 12.6777C42.8594 12.4629 43.1719 12.3555 43.4258 12.3555C43.9727 12.3555 44.4805 12.502 44.9492 12.7949C45.418 13.0879 45.8477 13.5176 46.2383 14.084C46.3359 14.2207 46.5117 14.5723 46.7656 15.1387C47.0391 15.6855 47.4004 16.4375 47.8496 17.3945C48.1035 17.9805 48.3672 18.4395 48.6406 18.7715C48.9141 19.084 49.1777 19.25 49.4316 19.2695L50.6621 21.9648C50.5645 21.9844 50.3008 22.0527 49.8711 22.1699C49.4609 22.2871 48.8652 22.4141 48.084 22.5508L46.0918 21.8184C45.6035 21.6816 45.0078 21.2031 44.3047 20.3828C43.6211 19.5625 43.0645 19.084 42.6348 18.9473C42.2246 19.2402 41.7852 19.8164 41.3164 20.6758C40.8477 21.5352 40.3691 22.6484 39.8809 24.0156C39.7637 24.3281 39.6074 24.6699 39.4121 25.041C39.2363 25.3926 39.0508 25.8027 38.8555 26.2715C38.7383 27.0137 38.6016 27.7266 38.4453 28.4102C38.1914 28.9961 37.918 29.7383 37.625 30.6367C37.332 31.5547 37.0195 32.6387 36.6875 33.8887C36.5898 34.3184 36.3359 34.9629 35.9258 35.8223C35.5352 36.6816 35.3008 37.3359 35.2227 37.7852C35.1836 38.0586 35.0957 38.4199 34.959 38.8691C34.8418 39.3184 34.6562 39.8457 34.4023 40.4512C33.9531 41.2324 33.543 41.8184 33.1719 42.209C32.8008 42.6191 32.4883 42.8242 32.2344 42.8242C31.6484 42.8242 31.209 42.541 30.916 41.9746C30.623 41.4082 30.4766 40.5684 30.4766 39.4551C30.4766 37.7754 30.5742 35.9297 30.7695 33.918C30.9648 31.9062 31.2578 29.748 31.6484 27.4434C31.7656 26.7793 31.8926 26.1055 32.0293 25.4219C32.166 24.7383 32.3027 24.0449 32.4395 23.3418C32.6152 22.5215 32.7324 21.7695 32.791 21.0859C32.8691 20.4023 32.8887 19.7871 32.8496 19.2402C32.6543 19.2988 32.3223 19.5527 31.8535 20.002C31.4043 20.4316 30.8281 21.0859 30.125 21.9648C30.0469 21.6719 29.9102 21.3105 29.7148 20.8809C29.5195 20.4512 29.2656 19.9141 28.9531 19.2695Z" fill="url(#paint1_linear_263_185)"/>
<path d="M56.3956 28.64C55.5956 28.3733 54.8623 27.9733 54.1956 27.44C53.529 26.88 53.0356 26.2667 52.7156 25.6C52.769 25.1733 52.9556 24.68 53.2756 24.12C53.5956 23.56 53.9823 23.0533 54.4356 22.6C54.889 22.12 55.329 21.8 55.7556 21.64C56.3156 21.7467 56.849 21.9867 57.3556 22.36C57.8623 22.7067 58.3023 23.1067 58.6756 23.56C59.0756 23.9867 59.3423 24.4 59.4756 24.8C59.4223 25.28 59.2223 25.7867 58.8756 26.32C58.529 26.8533 58.129 27.3333 57.6756 27.76C57.249 28.16 56.8223 28.4533 56.3956 28.64Z" fill="url(#paint2_linear_263_185)"/>
</g>
<defs>
<filter id="filter0_i_263_185" x="0.945312" y="0.431641" width="58.5312" height="46.3926" filterUnits="userSpaceOnUse" color-interpolation-filters="sRGB">
<feFlood flood-opacity="0" result="BackgroundImageFix"/>
<feBlend mode="normal" in="SourceGraphic" in2="BackgroundImageFix" result="shape"/>
<feColorMatrix in="SourceAlpha" type="matrix" values="0 0 0 0 0 0 0 0 0 0 0 0 0 0 0 0 0 0 127 0" result="hardAlpha"/>
<feOffset dy="4"/>
<feGaussianBlur stdDeviation="2"/>
<feComposite in2="hardAlpha" operator="arithmetic" k2="-1" k3="1"/>
<feColorMatrix type="matrix" values="0 0 0 0 0 0 0 0 0 0 0 0 0 0 0 0 0 0 0.25 0"/>
<feBlend mode="normal" in2="shape" result="effect1_innerShadow_263_185"/>
</filter>
<linearGradient id="paint0_linear_263_185" x1="-34" y1="41" x2="56.1704" y2="16.4279" gradientUnits="userSpaceOnUse">
<stop stop-color="#EB5E28"/>
<stop offset="1" stop-color="#7F519A"/>
</linearGradient>
<linearGradient id="paint1_linear_263_185" x1="-34" y1="41" x2="56.1704" y2="16.4279" gradientUnits="userSpaceOnUse">
<stop stop-color="#EB5E28"/>
<stop offset="1" stop-color="#7F519A"/>
</linearGradient>
<linearGradient id="paint2_linear_263_185" x1="-34" y1="41" x2="56.1704" y2="16.4279" gradientUnits="userSpaceOnUse">
<stop stop-color="#EB5E28"/>
<stop offset="1" stop-color="#7F519A"/>
</linearGradient>
</defs>
</svg>
