<svg viewBox="0 0 73 73" fill="none" xmlns="http://www.w3.org/2000/svg">
<g clip-path="url(#clip0_30_6637)">
<path d="M12.4266 41.7122C12.4266 41.2317 12.747 40.8101 13.2098 40.6815C27.6813 36.6588 36.7662 25.2112 40.6451 11.1914C40.9281 10.1688 42.4243 10.1688 42.7073 11.1914C46.5864 25.2123 55.6699 36.6587 70.1424 40.6815C71.1635 40.9653 71.1635 42.4591 70.1424 42.743C61.3497 45.1871 53.7008 50.7105 48.6049 58.2958C47.8336 59.4442 46.0575 58.2508 46.8288 57.1025C51.5836 50.0251 58.4432 44.6479 66.3818 41.712C54.5836 37.3457 45.3175 27.4868 41.6763 15.4463C38.0351 27.4868 28.7687 37.3462 16.9699 41.7122C28.7683 46.0781 38.0351 55.9372 41.6763 67.9781C42.2789 65.985 43.0375 64.0312 43.9371 62.1578C44.5356 60.9108 46.4646 61.8368 45.8658 63.0838C44.4563 66.0201 43.5718 69.1087 42.7073 72.2329C42.4243 73.2556 40.9281 73.2556 40.6451 72.2329C36.7659 58.212 27.6825 46.7658 13.2098 42.7429C12.747 42.6143 12.4266 42.1928 12.4266 41.7122Z" fill="#7D918E" fill-opacity="0.2"/>
<path d="M2.85783 12.0066C4.98684 11.4149 6.98517 10.3232 8.63702 8.84969C9.0778 8.45627 9.75423 8.49507 10.1475 8.93585C10.5409 9.37677 10.5023 10.0531 10.0614 10.4463C8.89521 11.4865 7.57858 12.3609 6.16881 13.0379C9.80573 14.7908 12.7228 17.8344 14.3145 21.5622C15.9063 17.8341 18.8241 14.7899 22.4616 13.0372C18.8244 11.2847 15.9069 8.24102 14.3151 4.51352C14.1479 4.90637 13.9656 5.29323 13.7686 5.67281C13.4967 6.19732 12.8507 6.40173 12.3264 6.12985C11.8019 5.85782 11.5974 5.21206 11.8694 4.68755C12.5137 3.4451 12.9303 2.11606 13.2835 0.767047C13.5662 -0.25573 15.0627 -0.255587 15.3457 0.766904C16.7481 6.08677 20.3281 10.4934 25.7713 12.0065C26.7924 12.2903 26.7924 13.7841 25.7713 14.068C20.3279 15.581 16.7462 19.9915 15.3457 25.3075C15.0627 26.3302 13.5662 26.3303 13.2835 25.3075C11.8818 19.9877 8.30066 15.581 2.85798 14.0681C1.83677 13.7841 1.83677 12.2905 2.85783 12.0066Z" fill="#7D918E" fill-opacity="0.2"/>
<path d="M6.97521 63.285C10.2316 62.3798 12.5106 59.6878 13.2835 56.4632C13.5665 55.4405 15.0627 55.4405 15.3457 56.4632C16.1154 59.6902 18.3975 62.3799 21.6541 63.285C22.6752 63.5689 22.6752 65.0627 21.6541 65.3466C18.3978 66.2518 16.1186 68.9437 15.3457 72.1684C15.0627 73.1911 13.5665 73.1911 13.2835 72.1684C12.5138 68.9416 10.2318 66.2518 6.97521 65.3466C5.95415 65.0627 5.95415 63.5689 6.97521 63.285ZM14.3145 68.7785C15.2894 66.9125 16.7892 65.3578 18.6122 64.3158C16.7892 63.2739 15.2894 61.7191 14.3145 59.8531C13.3397 61.7191 11.8399 63.2738 10.0169 64.3158C11.8399 65.3577 13.3397 66.9125 14.3145 68.7785Z" fill="#7D918E" fill-opacity="0.2"/>
<path d="M70.1424 19.9473C67.6839 20.6307 65.9426 22.6918 65.3632 25.1285C65.0804 26.1514 63.5837 26.1514 63.3009 25.1285C62.7164 22.6868 60.9852 20.6322 58.5217 19.9473C57.5006 19.6634 57.5006 18.1696 58.5217 17.8858C60.9804 17.2024 62.7215 15.1413 63.3009 12.7046C63.5837 11.6816 65.0804 11.6816 65.3632 12.7046C65.9477 15.1461 67.679 17.2009 70.1424 17.8858C71.1635 18.1696 71.1635 19.6633 70.1424 19.9473ZM64.332 15.8999C63.6157 17.1232 62.6118 18.1605 61.4159 18.9164C62.6119 19.6723 63.6157 20.7096 64.332 21.933C65.0484 20.7096 66.0523 19.6723 67.2481 18.9164C66.0523 18.1607 65.0485 17.1232 64.332 15.8999Z" fill="#7D918E" fill-opacity="0.2"/>
</g>
<defs>
<clipPath id="clip0_30_6637">
<rect width="73" height="73" fill="white" transform="matrix(-1 0 0 1 73 0)"/>
</clipPath>
</defs>
</svg>
